# xmcd
#
# Track frame offsets:
#	150
#	21276
#	72361
#	90209
#	145172
#	170040
#
# Disc length: 2777 seconds
#
# Revision: 1
# Processed by: cddbd v1.5.2PL0 Copyright (c) Steve Scherf et al.
# Submitted via: audiograbber 1.83.01
#
DISCID=4a0ad706
DTITLE=Grace Potter and the Nocturnals - Live Oh Five
DYEAR=1900
DGENRE=
TTITLE0=Long Way To Go
TTITLE1=Gumbo Moon
TTITLE2=Go Down Low
TTITLE3=Lovers Lost and Found
TTITLE4=2:22
TTITLE5=Nothin But The Water
EXTD=
EXTT0=
EXTT1=
EXTT2=
EXTT3=
EXTT4=
EXTT5=
PLAYORDER=
